<svg version="1.2" baseProfile="tiny-ps" xmlns="http://www.w3.org/2000/svg" viewBox="0 0 56 30" width="56" height="30">
	<title>cargo-svg</title>
	<style>
		tspan { white-space:pre }
		.shp0 { fill: #36b458 } 
	</style>
	<g id="Layer">
		<path id="Layer" class="shp0" d="M34.11 0L8.65 0C8.38 0 8.12 0.05 7.87 0.16C7.63 0.26 7.41 0.41 7.22 0.6C7.03 0.79 6.88 1.01 6.78 1.25C6.67 1.5 6.62 1.76 6.62 2.03L6.62 3.08L10.69 3.08C11.63 3.08 12.52 3.45 13.19 4.11C13.85 4.78 14.22 5.67 14.22 6.61C14.22 7.55 13.85 8.44 13.19 9.11C12.52 9.77 11.63 10.14 10.69 10.14L6.62 10.14L6.62 11.22L12.73 11.22C13.66 11.22 14.56 11.59 15.22 12.25C15.88 12.91 16.25 13.81 16.25 14.75C16.25 15.68 15.88 16.58 15.22 17.24C14.56 17.9 13.66 18.27 12.73 18.27L6.62 18.27L6.62 23.39C6.62 23.66 6.67 23.92 6.77 24.17C6.88 24.41 7.03 24.64 7.21 24.83C7.4 25.01 7.63 25.16 7.87 25.27C8.12 25.37 8.38 25.42 8.65 25.42L10.2 25.42C10.33 23.89 11.03 22.47 12.16 21.44C13.28 20.4 14.76 19.83 16.29 19.83C17.82 19.83 19.3 20.4 20.42 21.44C21.55 22.47 22.25 23.89 22.38 25.42L36.15 25.42L36.15 2.03C36.15 1.76 36.09 1.5 35.99 1.25C35.89 1.01 35.74 0.78 35.55 0.6C35.36 0.41 35.13 0.26 34.89 0.16C34.64 0.05 34.38 0 34.11 0L34.11 0Z" />
		<path id="Layer" class="shp0" d="M56 16.15L56 24.41C55.99 24.55 55.94 24.69 55.88 24.82C55.81 24.95 55.72 25.07 55.61 25.16C55.5 25.25 55.37 25.33 55.23 25.37C55.09 25.42 54.95 25.43 54.8 25.42L51.91 25.42C51.78 23.9 51.08 22.48 49.95 21.44C48.82 20.41 47.35 19.83 45.82 19.83C44.29 19.83 42.81 20.41 41.68 21.44C40.56 22.48 39.86 23.9 39.73 25.42L38.18 25.42L38.18 6.1L45.28 6.1C45.36 6.1 45.45 6.1 45.53 6.12C45.61 6.13 45.69 6.15 45.76 6.18C45.84 6.21 45.91 6.25 45.99 6.29C46.06 6.33 46.12 6.38 46.18 6.44L48.5 8.64L45.47 8.64C45.31 8.65 45.16 8.68 45.01 8.74C44.87 8.81 44.74 8.9 44.63 9.01C44.52 9.12 44.43 9.26 44.37 9.4C44.32 9.55 44.29 9.71 44.29 9.86L44.29 13.52C44.29 13.68 44.32 13.84 44.37 13.99C44.43 14.13 44.52 14.27 44.63 14.38C44.74 14.49 44.87 14.58 45.01 14.65C45.16 14.71 45.31 14.74 45.47 14.75L54.92 14.75C55.33 15.13 56 15.61 56 16.15Z" />
		<path id="Layer" class="shp0" d="M16.29 21.86C14.64 21.86 13.16 22.85 12.53 24.37C11.9 25.89 12.25 27.64 13.41 28.81C14.58 29.97 16.33 30.32 17.85 29.69C19.37 29.06 20.36 27.58 20.36 25.93C20.36 25.4 20.25 24.87 20.05 24.37C19.84 23.88 19.54 23.43 19.17 23.05C18.79 22.68 18.34 22.38 17.85 22.17C17.35 21.97 16.82 21.86 16.29 21.86L16.29 21.86Z" />
		<path id="Layer" class="shp0" d="M49.89 25.93C49.89 27.58 48.9 29.07 47.38 29.7C45.86 30.33 44.11 29.98 42.94 28.82C41.77 27.65 41.42 25.9 42.05 24.38C42.68 22.86 44.17 21.86 45.82 21.86C46.35 21.86 46.88 21.97 47.38 22.17C47.87 22.38 48.32 22.68 48.7 23.05C49.08 23.43 49.38 23.88 49.58 24.37C49.79 24.87 49.89 25.4 49.89 25.93L49.89 25.93Z" />
		<path id="Layer" class="shp0" d="M12.73 13.22L1.53 13.22C1.13 13.22 0.74 13.38 0.45 13.67C0.17 13.95 0.01 14.34 0.01 14.75C0.01 15.15 0.17 15.54 0.45 15.82C0.74 16.11 1.13 16.27 1.53 16.27L12.73 16.27C13.13 16.27 13.52 16.11 13.81 15.82C14.09 15.54 14.25 15.15 14.25 14.74C14.25 14.34 14.09 13.95 13.81 13.67C13.52 13.38 13.13 13.22 12.73 13.22L12.73 13.22Z" />
		<path id="Layer" class="shp0" d="M10.69 5.08L3.56 5.08C3.15 5.08 2.77 5.24 2.48 5.53C2.19 5.82 2.03 6.2 2.03 6.61C2.03 7.02 2.19 7.4 2.48 7.69C2.77 7.98 3.15 8.14 3.56 8.14L10.69 8.14C11.1 8.14 11.48 7.98 11.77 7.69C12.06 7.4 12.22 7.02 12.22 6.61C12.22 6.2 12.06 5.82 11.77 5.53C11.48 5.24 11.1 5.08 10.69 5.08L10.69 5.08Z" />
	</g>
</svg>