<svg version="1.2" baseProfile="tiny-ps" xmlns="http://www.w3.org/2000/svg" viewBox="0 0 24 24" width="24" height="24">
	<title>close-svg</title>
	<style>
		tspan { white-space:pre }
		.shp0 { fill: #ffffff } 
	</style>
	<path id="Layer" fill-rule="evenodd" class="shp0" d="M12 24C5.38 24 0 18.62 0 12C0 5.38 5.38 0 12 0C18.62 0 24 5.38 24 12C24 18.62 18.62 24 12 24ZM12 1C5.93 1 1 5.93 1 12C1 18.07 5.93 23 12 23C18.07 23 23 18.07 23 12C23 5.93 18.07 1 12 1Z" />
	<path id="Layer" class="shp0" d="M8.5 16C8.4 16 8.3 15.97 8.22 15.92C8.14 15.86 8.08 15.78 8.04 15.69C8 15.6 7.99 15.5 8.01 15.4C8.03 15.31 8.08 15.22 8.15 15.15L15.15 8.15C15.24 8.06 15.37 8.01 15.5 8.01C15.63 8.01 15.75 8.06 15.85 8.15C15.94 8.25 15.99 8.37 15.99 8.5C15.99 8.63 15.94 8.76 15.85 8.85L8.85 15.85C8.83 15.88 8.8 15.9 8.78 15.92C8.75 15.93 8.72 15.95 8.69 15.96C8.66 15.97 8.63 15.98 8.6 15.99C8.57 16 8.53 16 8.5 16L8.5 16Z" />
	<path id="Layer" class="shp0" d="M15.5 16C15.47 16 15.43 16 15.4 15.99C15.37 15.98 15.34 15.97 15.31 15.96C15.28 15.95 15.25 15.93 15.22 15.92C15.19 15.9 15.17 15.88 15.15 15.85L8.15 8.85C8.05 8.76 8 8.63 8.01 8.5C8.01 8.37 8.06 8.25 8.15 8.15C8.24 8.06 8.37 8.01 8.5 8.01C8.63 8.01 8.76 8.06 8.85 8.15L15.85 15.15C15.92 15.22 15.97 15.31 15.99 15.4C16.01 15.5 16 15.6 15.96 15.69C15.92 15.78 15.86 15.86 15.78 15.92C15.7 15.97 15.6 16 15.5 16Z" />
</svg>